solid OpenSCAD_Model
  facet normal 1 -0 0
    outer loop
      vertex 4.8 2.6 4.65
      vertex 4.8 3.4 4.15
      vertex 4.8 3.4 4.65
    endloop
  endfacet
  facet normal 1 0 0
    outer loop
      vertex 4.8 3.4 4.15
      vertex 4.8 2.6 4.65
      vertex 4.8 2.6 4.15
    endloop
  endfacet
  facet normal -0 0 1
    outer loop
      vertex 3.2 3.4 4.65
      vertex 4.8 2.6 4.65
      vertex 4.8 3.4 4.65
    endloop
  endfacet
  facet normal 0 0 1
    outer loop
      vertex 4.8 2.6 4.65
      vertex 3.2 3.4 4.65
      vertex 3.2 2.6 4.65
    endloop
  endfacet
  facet normal 0 0 1
    outer loop
      vertex 4.8 2.6 4.15
      vertex 7 6.2 4.15
      vertex 4.8 3.4 4.15
    endloop
  endfacet
  facet normal 0 0 1
    outer loop
      vertex 6.2 7 4.15
      vertex 3.2 3.4 4.15
      vertex 4.8 3.4 4.15
    endloop
  endfacet
  facet normal 0 0 1
    outer loop
      vertex 3.2 3.4 4.15
      vertex 2.8 1.65 4.15
      vertex 3.2 2.6 4.15
    endloop
  endfacet
  facet normal 0 0 1
    outer loop
      vertex 3.2 3.4 4.15
      vertex -2.8 1.65 4.15
      vertex 2.8 1.65 4.15
    endloop
  endfacet
  facet normal -0 0 1
    outer loop
      vertex -6.2 7 4.15
      vertex 3.2 3.4 4.15
      vertex 6.2 7 4.15
    endloop
  endfacet
  facet normal 0 0 1
    outer loop
      vertex -4.8 -2.6 4.15
      vertex -2.8 -1.65 4.15
      vertex -2.8 1.65 4.15
    endloop
  endfacet
  facet normal 0 0 1
    outer loop
      vertex -2.8 -1.65 4.15
      vertex -4.8 -2.6 4.15
      vertex -3.2 -2.6 4.15
    endloop
  endfacet
  facet normal 0 0 1
    outer loop
      vertex -2.8 1.65 4.15
      vertex -7 6.2 4.15
      vertex -4.8 -2.6 4.15
    endloop
  endfacet
  facet normal -0 0 1
    outer loop
      vertex -7 6.2 4.15
      vertex -2.8 1.65 4.15
      vertex -6.2 7 4.15
    endloop
  endfacet
  facet normal 0 0 1
    outer loop
      vertex 3.2 3.4 4.15
      vertex -6.2 7 4.15
      vertex -2.8 1.65 4.15
    endloop
  endfacet
  facet normal 0 0 1
    outer loop
      vertex 6.2 7 4.15
      vertex 7 6.2 4.15
      vertex 6.99315 6.30441 4.15
    endloop
  endfacet
  facet normal 0 0 1
    outer loop
      vertex 7 6.2 4.15
      vertex 5.8 -1.6 4.15
      vertex 7 -6.2 4.15
    endloop
  endfacet
  facet normal 0 0 1
    outer loop
      vertex 6.2 7 4.15
      vertex 6.99315 6.30441 4.15
      vertex 6.97273 6.40704 4.15
    endloop
  endfacet
  facet normal -0 -0 1
    outer loop
      vertex 6.35 -4.75 4.15
      vertex 7 -6.2 4.15
      vertex 5.8 -1.6 4.15
    endloop
  endfacet
  facet normal 0 0 1
    outer loop
      vertex 6.2 7 4.15
      vertex 6.97273 6.40704 4.15
      vertex 6.9391 6.50613 4.15
    endloop
  endfacet
  facet normal 0 0 1
    outer loop
      vertex 6.35 -6.98408 4.15
      vertex 7 -6.2 4.15
      vertex 6.35 -4.75 4.15
    endloop
  endfacet
  facet normal 0 0 1
    outer loop
      vertex 6.2 7 4.15
      vertex 6.9391 6.50613 4.15
      vertex 6.89281 6.59999 4.15
    endloop
  endfacet
  facet normal 0 0 1
    outer loop
      vertex 7 -6.2 4.15
      vertex 6.35 -6.98408 4.15
      vertex 6.99315 -6.30441 4.15
    endloop
  endfacet
  facet normal 0 0 1
    outer loop
      vertex 6.2 7 4.15
      vertex 6.89281 6.59999 4.15
      vertex 6.83467 6.687 4.15
    endloop
  endfacet
  facet normal 0 0 1
    outer loop
      vertex 6.97273 -6.40704 4.15
      vertex 6.35 -6.98408 4.15
      vertex 6.9391 -6.50613 4.15
    endloop
  endfacet
  facet normal 0 0 1
    outer loop
      vertex 6.2 7 4.15
      vertex 6.83467 6.687 4.15
      vertex 6.76567 6.76567 4.15
    endloop
  endfacet
  facet normal 0 0 1
    outer loop
      vertex 6.9391 -6.50613 4.15
      vertex 6.35 -6.98408 4.15
      vertex 6.89281 -6.59999 4.15
    endloop
  endfacet
  facet normal 0 0 1
    outer loop
      vertex 6.2 7 4.15
      vertex 6.76567 6.76567 4.15
      vertex 6.687 6.83467 4.15
    endloop
  endfacet
  facet normal 0 0 1
    outer loop
      vertex 6.89281 -6.59999 4.15
      vertex 6.35 -6.98408 4.15
      vertex 6.83467 -6.687 4.15
    endloop
  endfacet
  facet normal 0 0 1
    outer loop
      vertex 6.2 7 4.15
      vertex 6.687 6.83467 4.15
      vertex 6.59999 6.89281 4.15
    endloop
  endfacet
  facet normal 0 0 1
    outer loop
      vertex 6.83467 -6.687 4.15
      vertex 6.35 -6.98408 4.15
      vertex 6.76567 -6.76567 4.15
    endloop
  endfacet
  facet normal 0 0 1
    outer loop
      vertex 6.2 7 4.15
      vertex 6.59999 6.89281 4.15
      vertex 6.50613 6.9391 4.15
    endloop
  endfacet
  facet normal 0 0 1
    outer loop
      vertex 6.76567 -6.76567 4.15
      vertex 6.35 -6.98408 4.15
      vertex 6.687 -6.83467 4.15
    endloop
  endfacet
  facet normal 0 0 1
    outer loop
      vertex 6.2 7 4.15
      vertex 6.50613 6.9391 4.15
      vertex 6.40704 6.97273 4.15
    endloop
  endfacet
  facet normal 0 0 1
    outer loop
      vertex 6.687 -6.83467 4.15
      vertex 6.35 -6.98408 4.15
      vertex 6.59999 -6.89281 4.15
    endloop
  endfacet
  facet normal 0 0 1
    outer loop
      vertex 6.59999 -6.89281 4.15
      vertex 6.35 -6.98408 4.15
      vertex 6.50613 -6.9391 4.15
    endloop
  endfacet
  facet normal 0 0 1
    outer loop
      vertex 6.2 7 4.15
      vertex 6.40704 6.97273 4.15
      vertex 6.30441 6.99315 4.15
    endloop
  endfacet
  facet normal 0 0 1
    outer loop
      vertex 4.8 3.4 4.15
      vertex 7 6.2 4.15
      vertex 6.2 7 4.15
    endloop
  endfacet
  facet normal 0 0 1
    outer loop
      vertex 6.99315 -6.30441 4.15
      vertex 6.35 -6.98408 4.15
      vertex 6.97273 -6.40704 4.15
    endloop
  endfacet
  facet normal -0 0 1
    outer loop
      vertex 5.8 -2.4 4.15
      vertex 6.35 -4.75 4.15
      vertex 5.8 -1.6 4.15
    endloop
  endfacet
  facet normal -0 0 1
    outer loop
      vertex 4.2 -2.4 4.15
      vertex 6.35 -4.75 4.15
      vertex 5.8 -2.4 4.15
    endloop
  endfacet
  facet normal 0 0 1
    outer loop
      vertex 2.8 -1.65 4.15
      vertex 4.2 -1.6 4.15
      vertex 2.8 1.65 4.15
    endloop
  endfacet
  facet normal 0 0 1
    outer loop
      vertex 4.2 -1.6 4.15
      vertex 2.8 -1.65 4.15
      vertex 4.2 -2.4 4.15
    endloop
  endfacet
  facet normal 0 0 1
    outer loop
      vertex -3.2 -3.4 4.15
      vertex 4.2 -2.4 4.15
      vertex 2.8 -1.65 4.15
    endloop
  endfacet
  facet normal 0 0 1
    outer loop
      vertex -3.2 -3.4 4.15
      vertex 2.8 -1.65 4.15
      vertex -2.8 -1.65 4.15
    endloop
  endfacet
  facet normal 0 0 1
    outer loop
      vertex -3.2 -3.4 4.15
      vertex -2.8 -1.65 4.15
      vertex -3.2 -2.6 4.15
    endloop
  endfacet
  facet normal 0 0 1
    outer loop
      vertex 4.2 -2.4 4.15
      vertex -3.2 -3.4 4.15
      vertex 6.35 -4.75 4.15
    endloop
  endfacet
  facet normal 0 0 1
    outer loop
      vertex -6.35 -4.75 4.15
      vertex -3.2 -3.4 4.15
      vertex -4.8 -3.4 4.15
    endloop
  endfacet
  facet normal 0 0 1
    outer loop
      vertex -7 6.2 4.15
      vertex -6.2 7 4.15
      vertex -6.30441 6.99315 4.15
    endloop
  endfacet
  facet normal 0 0 1
    outer loop
      vertex -3.2 -3.4 4.15
      vertex -6.35 -4.75 4.15
      vertex 6.35 -4.75 4.15
    endloop
  endfacet
  facet normal 0 -0 1
    outer loop
      vertex -6.35 -4.75 4.15
      vertex -4.8 -2.6 4.15
      vertex -7 6.2 4.15
    endloop
  endfacet
  facet normal 0 0 1
    outer loop
      vertex -7 6.2 4.15
      vertex -6.30441 6.99315 4.15
      vertex -6.40704 6.97273 4.15
    endloop
  endfacet
  facet normal 0 0 1
    outer loop
      vertex -4.8 -2.6 4.15
      vertex -6.35 -4.75 4.15
      vertex -4.8 -3.4 4.15
    endloop
  endfacet
  facet normal 0 0 1
    outer loop
      vertex -7 -6.2 4.15
      vertex -6.35 -4.75 4.15
      vertex -7 6.2 4.15
    endloop
  endfacet
  facet normal 0 0 1
    outer loop
      vertex -7 6.2 4.15
      vertex -6.40704 6.97273 4.15
      vertex -6.50613 6.9391 4.15
    endloop
  endfacet
  facet normal 0 0 1
    outer loop
      vertex -6.35 -4.75 4.15
      vertex -7 -6.2 4.15
      vertex -6.35 -6.98408 4.15
    endloop
  endfacet
  facet normal 0 0 1
    outer loop
      vertex -7 6.2 4.15
      vertex -6.50613 6.9391 4.15
      vertex -6.59999 6.89281 4.15
    endloop
  endfacet
  facet normal -0 -0 1
    outer loop
      vertex -6.50613 -6.9391 4.15
      vertex -6.35 -6.98408 4.15
      vertex -7 -6.2 4.15
    endloop
  endfacet
  facet normal 0 0 1
    outer loop
      vertex -7 6.2 4.15
      vertex -6.59999 6.89281 4.15
      vertex -6.687 6.83467 4.15
    endloop
  endfacet
  facet normal 0 0 1
    outer loop
      vertex -6.35 -6.98408 4.15
      vertex -6.50613 -6.9391 4.15
      vertex -6.40704 -6.97273 4.15
    endloop
  endfacet
  facet normal 0 0 1
    outer loop
      vertex -7 6.2 4.15
      vertex -6.687 6.83467 4.15
      vertex -6.76567 6.76567 4.15
    endloop
  endfacet
  facet normal 0 0 1
    outer loop
      vertex -6.50613 -6.9391 4.15
      vertex -7 -6.2 4.15
      vertex -6.59999 -6.89281 4.15
    endloop
  endfacet
  facet normal 0 0 1
    outer loop
      vertex -7 6.2 4.15
      vertex -6.76567 6.76567 4.15
      vertex -6.83467 6.687 4.15
    endloop
  endfacet
  facet normal 0 0 1
    outer loop
      vertex -6.59999 -6.89281 4.15
      vertex -7 -6.2 4.15
      vertex -6.687 -6.83467 4.15
    endloop
  endfacet
  facet normal 0 0 1
    outer loop
      vertex -7 6.2 4.15
      vertex -6.83467 6.687 4.15
      vertex -6.89281 6.59999 4.15
    endloop
  endfacet
  facet normal 0 0 1
    outer loop
      vertex -6.687 -6.83467 4.15
      vertex -7 -6.2 4.15
      vertex -6.76567 -6.76567 4.15
    endloop
  endfacet
  facet normal 0 0 1
    outer loop
      vertex -7 6.2 4.15
      vertex -6.89281 6.59999 4.15
      vertex -6.9391 6.50613 4.15
    endloop
  endfacet
  facet normal 0 0 1
    outer loop
      vertex -6.76567 -6.76567 4.15
      vertex -7 -6.2 4.15
      vertex -6.83467 -6.687 4.15
    endloop
  endfacet
  facet normal 0 0 1
    outer loop
      vertex -7 6.2 4.15
      vertex -6.9391 6.50613 4.15
      vertex -6.97273 6.40704 4.15
    endloop
  endfacet
  facet normal 0 0 1
    outer loop
      vertex -6.83467 -6.687 4.15
      vertex -7 -6.2 4.15
      vertex -6.89281 -6.59999 4.15
    endloop
  endfacet
  facet normal 0 0 1
    outer loop
      vertex -7 6.2 4.15
      vertex -6.97273 6.40704 4.15
      vertex -6.99315 6.30441 4.15
    endloop
  endfacet
  facet normal 0 0 1
    outer loop
      vertex -6.89281 -6.59999 4.15
      vertex -7 -6.2 4.15
      vertex -6.9391 -6.50613 4.15
    endloop
  endfacet
  facet normal 0 0 1
    outer loop
      vertex -6.9391 -6.50613 4.15
      vertex -7 -6.2 4.15
      vertex -6.97273 -6.40704 4.15
    endloop
  endfacet
  facet normal 0 0 1
    outer loop
      vertex -6.97273 -6.40704 4.15
      vertex -7 -6.2 4.15
      vertex -6.99315 -6.30441 4.15
    endloop
  endfacet
  facet normal 0 0 1
    outer loop
      vertex 6.50613 -6.9391 4.15
      vertex 6.35 -6.98408 4.15
      vertex 6.40704 -6.97273 4.15
    endloop
  endfacet
  facet normal 0 0 1
    outer loop
      vertex 7 6.2 4.15
      vertex 4.8 2.6 4.15
      vertex 5.8 -1.6 4.15
    endloop
  endfacet
  facet normal 0 0 1
    outer loop
      vertex 4.8 2.6 4.15
      vertex 4.2 -1.6 4.15
      vertex 5.8 -1.6 4.15
    endloop
  endfacet
  facet normal 0 0 1
    outer loop
      vertex 4.8 2.6 4.15
      vertex 2.8 1.65 4.15
      vertex 4.2 -1.6 4.15
    endloop
  endfacet
  facet normal 0 0 1
    outer loop
      vertex 2.8 1.65 4.15
      vertex 4.8 2.6 4.15
      vertex 3.2 2.6 4.15
    endloop
  endfacet
  facet normal 0 0 -1
    outer loop
      vertex 6.35 -7.25 4.15
      vertex 6.30441 -6.99315 4.15
      vertex 6.35 -6.98408 4.15
    endloop
  endfacet
  facet normal 0 0 -1
    outer loop
      vertex 6.35 -7.25 4.15
      vertex 6.2 -7 4.15
      vertex 6.30441 -6.99315 4.15
    endloop
  endfacet
  facet normal 0 0 -1
    outer loop
      vertex 6.35 -7.25 4.15
      vertex -6.2 -7 4.15
      vertex 6.2 -7 4.15
    endloop
  endfacet
  facet normal 0 0 -1
    outer loop
      vertex -6.35 -7.25 4.15
      vertex -6.2 -7 4.15
      vertex 6.35 -7.25 4.15
    endloop
  endfacet
  facet normal 0 0 -1
    outer loop
      vertex -6.35 -7.25 4.15
      vertex -6.30441 -6.99315 4.15
      vertex -6.2 -7 4.15
    endloop
  endfacet
  facet normal -0 0 -1
    outer loop
      vertex -6.30441 -6.99315 4.15
      vertex -6.35 -7.25 4.15
      vertex -6.35 -6.98408 4.15
    endloop
  endfacet
  facet normal -1 0 0
    outer loop
      vertex 3.2 2.6 4.15
      vertex 3.2 3.4 4.65
      vertex 3.2 3.4 4.15
    endloop
  endfacet
  facet normal -1 -0 0
    outer loop
      vertex 3.2 3.4 4.65
      vertex 3.2 2.6 4.15
      vertex 3.2 2.6 4.65
    endloop
  endfacet
  facet normal 0 1 -0
    outer loop
      vertex 4.8 3.4 4.15
      vertex 3.2 3.4 4.65
      vertex 4.8 3.4 4.65
    endloop
  endfacet
  facet normal 0 1 0
    outer loop
      vertex 3.2 3.4 4.65
      vertex 4.8 3.4 4.15
      vertex 3.2 3.4 4.15
    endloop
  endfacet
  facet normal 0 -1 0
    outer loop
      vertex 3.2 2.6 4.15
      vertex 4.8 2.6 4.65
      vertex 3.2 2.6 4.65
    endloop
  endfacet
  facet normal 0 -1 -0
    outer loop
      vertex 4.8 2.6 4.65
      vertex 3.2 2.6 4.15
      vertex 4.8 2.6 4.15
    endloop
  endfacet
  facet normal 1 -0 0
    outer loop
      vertex -3.2 -3.4 4.65
      vertex -3.2 -2.6 4.15
      vertex -3.2 -2.6 4.65
    endloop
  endfacet
  facet normal 1 0 0
    outer loop
      vertex -3.2 -2.6 4.15
      vertex -3.2 -3.4 4.65
      vertex -3.2 -3.4 4.15
    endloop
  endfacet
  facet normal -0 0 1
    outer loop
      vertex -4.8 -2.6 4.65
      vertex -3.2 -3.4 4.65
      vertex -3.2 -2.6 4.65
    endloop
  endfacet
  facet normal 0 0 1
    outer loop
      vertex -3.2 -3.4 4.65
      vertex -4.8 -2.6 4.65
      vertex -4.8 -3.4 4.65
    endloop
  endfacet
  facet normal -1 0 0
    outer loop
      vertex -4.8 -3.4 4.15
      vertex -4.8 -2.6 4.65
      vertex -4.8 -2.6 4.15
    endloop
  endfacet
  facet normal -1 -0 0
    outer loop
      vertex -4.8 -2.6 4.65
      vertex -4.8 -3.4 4.15
      vertex -4.8 -3.4 4.65
    endloop
  endfacet
  facet normal 0 1 -0
    outer loop
      vertex -3.2 -2.6 4.15
      vertex -4.8 -2.6 4.65
      vertex -3.2 -2.6 4.65
    endloop
  endfacet
  facet normal 0 1 0
    outer loop
      vertex -4.8 -2.6 4.65
      vertex -3.2 -2.6 4.15
      vertex -4.8 -2.6 4.15
    endloop
  endfacet
  facet normal 0 -1 0
    outer loop
      vertex -4.8 -3.4 4.15
      vertex -3.2 -3.4 4.65
      vertex -4.8 -3.4 4.65
    endloop
  endfacet
  facet normal 0 -1 -0
    outer loop
      vertex -3.2 -3.4 4.65
      vertex -4.8 -3.4 4.15
      vertex -3.2 -3.4 4.15
    endloop
  endfacet
  facet normal 1 -0 0
    outer loop
      vertex 5.8 -2.4 4.65
      vertex 5.8 -1.6 4.15
      vertex 5.8 -1.6 4.65
    endloop
  endfacet
  facet normal 1 0 0
    outer loop
      vertex 5.8 -1.6 4.15
      vertex 5.8 -2.4 4.65
      vertex 5.8 -2.4 4.15
    endloop
  endfacet
  facet normal -0 0 1
    outer loop
      vertex 4.2 -1.6 4.65
      vertex 5.8 -2.4 4.65
      vertex 5.8 -1.6 4.65
    endloop
  endfacet
  facet normal 0 0 1
    outer loop
      vertex 5.8 -2.4 4.65
      vertex 4.2 -1.6 4.65
      vertex 4.2 -2.4 4.65
    endloop
  endfacet
  facet normal -1 0 0
    outer loop
      vertex 4.2 -2.4 4.15
      vertex 4.2 -1.6 4.65
      vertex 4.2 -1.6 4.15
    endloop
  endfacet
  facet normal -1 -0 0
    outer loop
      vertex 4.2 -1.6 4.65
      vertex 4.2 -2.4 4.15
      vertex 4.2 -2.4 4.65
    endloop
  endfacet
  facet normal 0 1 -0
    outer loop
      vertex 5.8 -1.6 4.15
      vertex 4.2 -1.6 4.65
      vertex 5.8 -1.6 4.65
    endloop
  endfacet
  facet normal 0 1 0
    outer loop
      vertex 4.2 -1.6 4.65
      vertex 5.8 -1.6 4.15
      vertex 4.2 -1.6 4.15
    endloop
  endfacet
  facet normal 0 -1 0
    outer loop
      vertex 4.2 -2.4 4.15
      vertex 5.8 -2.4 4.65
      vertex 4.2 -2.4 4.65
    endloop
  endfacet
  facet normal 0 -1 -0
    outer loop
      vertex 5.8 -2.4 4.65
      vertex 4.2 -2.4 4.15
      vertex 5.8 -2.4 4.15
    endloop
  endfacet
  facet normal 1 -0 0
    outer loop
      vertex -4.76 -6.32 2.55
      vertex -4.76 -5.68 -0.449999
      vertex -4.76 -5.68 2.55
    endloop
  endfacet
  facet normal 1 0 0
    outer loop
      vertex -4.76 -5.68 -0.449999
      vertex -4.76 -6.32 2.55
      vertex -4.76 -6.32 -0.449999
    endloop
  endfacet
  facet normal 0 0 -1
    outer loop
      vertex -5.4 -6.32 -0.449999
      vertex -4.76 -5.68 -0.449999
      vertex -4.76 -6.32 -0.449999
    endloop
  endfacet
  facet normal -0 0 -1
    outer loop
      vertex -4.76 -5.68 -0.449999
      vertex -5.4 -6.32 -0.449999
      vertex -5.4 -5.68 -0.449999
    endloop
  endfacet
  facet normal -1 0 0
    outer loop
      vertex -5.4 -6.32 -0.449999
      vertex -5.4 -5.68 2.55
      vertex -5.4 -5.68 -0.449999
    endloop
  endfacet
  facet normal -1 -0 0
    outer loop
      vertex -5.4 -5.68 2.55
      vertex -5.4 -6.32 -0.449999
      vertex -5.4 -6.32 2.55
    endloop
  endfacet
  facet normal 0 1 -0
    outer loop
      vertex -4.76 -5.68 -0.449999
      vertex -5.4 -5.68 2.55
      vertex -4.76 -5.68 2.55
    endloop
  endfacet
  facet normal 0 1 0
    outer loop
      vertex -5.4 -5.68 2.55
      vertex -4.76 -5.68 -0.449999
      vertex -5.4 -5.68 -0.449999
    endloop
  endfacet
  facet normal 0 -1 0
    outer loop
      vertex -5.4 -6.32 -0.449999
      vertex -4.76 -6.32 2.55
      vertex -5.4 -6.32 2.55
    endloop
  endfacet
  facet normal 0 -1 -0
    outer loop
      vertex -4.76 -6.32 2.55
      vertex -5.4 -6.32 -0.449999
      vertex -4.76 -6.32 -0.449999
    endloop
  endfacet
  facet normal 1 -0 0
    outer loop
      vertex -2.22 -6.32 2.55
      vertex -2.22 -5.68 -0.449999
      vertex -2.22 -5.68 2.55
    endloop
  endfacet
  facet normal 1 0 0
    outer loop
      vertex -2.22 -5.68 -0.449999
      vertex -2.22 -6.32 2.55
      vertex -2.22 -6.32 -0.449999
    endloop
  endfacet
  facet normal 0 0 -1
    outer loop
      vertex -2.86 -6.32 -0.449999
      vertex -2.22 -5.68 -0.449999
      vertex -2.22 -6.32 -0.449999
    endloop
  endfacet
  facet normal -0 0 -1
    outer loop
      vertex -2.22 -5.68 -0.449999
      vertex -2.86 -6.32 -0.449999
      vertex -2.86 -5.68 -0.449999
    endloop
  endfacet
  facet normal -1 0 0
    outer loop
      vertex -2.86 -6.32 -0.449999
      vertex -2.86 -5.68 2.55
      vertex -2.86 -5.68 -0.449999
    endloop
  endfacet
  facet normal -1 -0 0
    outer loop
      vertex -2.86 -5.68 2.55
      vertex -2.86 -6.32 -0.449999
      vertex -2.86 -6.32 2.55
    endloop
  endfacet
  facet normal 0 1 -0
    outer loop
      vertex -2.22 -5.68 -0.449999
      vertex -2.86 -5.68 2.55
      vertex -2.22 -5.68 2.55
    endloop
  endfacet
  facet normal 0 1 0
    outer loop
      vertex -2.86 -5.68 2.55
      vertex -2.22 -5.68 -0.449999
      vertex -2.86 -5.68 -0.449999
    endloop
  endfacet
  facet normal 0 -1 0
    outer loop
      vertex -2.86 -6.32 -0.449999
      vertex -2.22 -6.32 2.55
      vertex -2.86 -6.32 2.55
    endloop
  endfacet
  facet normal 0 -1 -0
    outer loop
      vertex -2.22 -6.32 2.55
      vertex -2.86 -6.32 -0.449999
      vertex -2.22 -6.32 -0.449999
    endloop
  endfacet
  facet normal 1 -0 0
    outer loop
      vertex 0.32 -6.32 2.55
      vertex 0.32 -5.68 -0.449999
      vertex 0.32 -5.68 2.55
    endloop
  endfacet
  facet normal 1 0 0
    outer loop
      vertex 0.32 -5.68 -0.449999
      vertex 0.32 -6.32 2.55
      vertex 0.32 -6.32 -0.449999
    endloop
  endfacet
  facet normal 0 0 -1
    outer loop
      vertex -0.32 -6.32 -0.449999
      vertex 0.32 -5.68 -0.449999
      vertex 0.32 -6.32 -0.449999
    endloop
  endfacet
  facet normal -0 0 -1
    outer loop
      vertex 0.32 -5.68 -0.449999
      vertex -0.32 -6.32 -0.449999
      vertex -0.32 -5.68 -0.449999
    endloop
  endfacet
  facet normal -1 0 0
    outer loop
      vertex -0.32 -6.32 -0.449999
      vertex -0.32 -5.68 2.55
      vertex -0.32 -5.68 -0.449999
    endloop
  endfacet
  facet normal -1 -0 0
    outer loop
      vertex -0.32 -5.68 2.55
      vertex -0.32 -6.32 -0.449999
      vertex -0.32 -6.32 2.55
    endloop
  endfacet
  facet normal 0 1 -0
    outer loop
      vertex 0.32 -5.68 -0.449999
      vertex -0.32 -5.68 2.55
      vertex 0.32 -5.68 2.55
    endloop
  endfacet
  facet normal 0 1 0
    outer loop
      vertex -0.32 -5.68 2.55
      vertex 0.32 -5.68 -0.449999
      vertex -0.32 -5.68 -0.449999
    endloop
  endfacet
  facet normal 0 -1 0
    outer loop
      vertex -0.32 -6.32 -0.449999
      vertex 0.32 -6.32 2.55
      vertex -0.32 -6.32 2.55
    endloop
  endfacet
  facet normal 0 -1 -0
    outer loop
      vertex 0.32 -6.32 2.55
      vertex -0.32 -6.32 -0.449999
      vertex 0.32 -6.32 -0.449999
    endloop
  endfacet
  facet normal 1 -0 0
    outer loop
      vertex 2.86 -6.32 2.55
      vertex 2.86 -5.68 -0.449999
      vertex 2.86 -5.68 2.55
    endloop
  endfacet
  facet normal 1 0 0
    outer loop
      vertex 2.86 -5.68 -0.449999
      vertex 2.86 -6.32 2.55
      vertex 2.86 -6.32 -0.449999
    endloop
  endfacet
  facet normal 0 0 -1
    outer loop
      vertex 2.22 -6.32 -0.449999
      vertex 2.86 -5.68 -0.449999
      vertex 2.86 -6.32 -0.449999
    endloop
  endfacet
  facet normal -0 0 -1
    outer loop
      vertex 2.86 -5.68 -0.449999
      vertex 2.22 -6.32 -0.449999
      vertex 2.22 -5.68 -0.449999
    endloop
  endfacet
  facet normal -1 0 0
    outer loop
      vertex 2.22 -6.32 -0.449999
      vertex 2.22 -5.68 2.55
      vertex 2.22 -5.68 -0.449999
    endloop
  endfacet
  facet normal -1 -0 0
    outer loop
      vertex 2.22 -5.68 2.55
      vertex 2.22 -6.32 -0.449999
      vertex 2.22 -6.32 2.55
    endloop
  endfacet
  facet normal 0 1 -0
    outer loop
      vertex 2.86 -5.68 -0.449999
      vertex 2.22 -5.68 2.55
      vertex 2.86 -5.68 2.55
    endloop
  endfacet
  facet normal 0 1 0
    outer loop
      vertex 2.22 -5.68 2.55
      vertex 2.86 -5.68 -0.449999
      vertex 2.22 -5.68 -0.449999
    endloop
  endfacet
  facet normal 0 -1 0
    outer loop
      vertex 2.22 -6.32 -0.449999
      vertex 2.86 -6.32 2.55
      vertex 2.22 -6.32 2.55
    endloop
  endfacet
  facet normal 0 -1 -0
    outer loop
      vertex 2.86 -6.32 2.55
      vertex 2.22 -6.32 -0.449999
      vertex 2.86 -6.32 -0.449999
    endloop
  endfacet
  facet normal 1 -0 0
    outer loop
      vertex 5.4 -6.32 2.55
      vertex 5.4 -5.68 -0.449999
      vertex 5.4 -5.68 2.55
    endloop
  endfacet
  facet normal 1 0 0
    outer loop
      vertex 5.4 -5.68 -0.449999
      vertex 5.4 -6.32 2.55
      vertex 5.4 -6.32 -0.449999
    endloop
  endfacet
  facet normal 0 0 -1
    outer loop
      vertex 4.76 -6.32 -0.449999
      vertex 5.4 -5.68 -0.449999
      vertex 5.4 -6.32 -0.449999
    endloop
  endfacet
  facet normal -0 0 -1
    outer loop
      vertex 5.4 -5.68 -0.449999
      vertex 4.76 -6.32 -0.449999
      vertex 4.76 -5.68 -0.449999
    endloop
  endfacet
  facet normal -1 0 0
    outer loop
      vertex 4.76 -6.32 -0.449999
      vertex 4.76 -5.68 2.55
      vertex 4.76 -5.68 -0.449999
    endloop
  endfacet
  facet normal -1 -0 0
    outer loop
      vertex 4.76 -5.68 2.55
      vertex 4.76 -6.32 -0.449999
      vertex 4.76 -6.32 2.55
    endloop
  endfacet
  facet normal 0 1 -0
    outer loop
      vertex 5.4 -5.68 -0.449999
      vertex 4.76 -5.68 2.55
      vertex 5.4 -5.68 2.55
    endloop
  endfacet
  facet normal 0 1 0
    outer loop
      vertex 4.76 -5.68 2.55
      vertex 5.4 -5.68 -0.449999
      vertex 4.76 -5.68 -0.449999
    endloop
  endfacet
  facet normal 0 -1 0
    outer loop
      vertex 4.76 -6.32 -0.449999
      vertex 5.4 -6.32 2.55
      vertex 4.76 -6.32 2.55
    endloop
  endfacet
  facet normal 0 -1 -0
    outer loop
      vertex 5.4 -6.32 2.55
      vertex 4.76 -6.32 -0.449999
      vertex 5.4 -6.32 -0.449999
    endloop
  endfacet
  facet normal -0.831462 -0.555582 0
    outer loop
      vertex -6.83467 -6.687 2.55
      vertex -6.89281 -6.59999 4.15
      vertex -6.89281 -6.59999 2.55
    endloop
  endfacet
  facet normal -0.831462 -0.555582 0
    outer loop
      vertex -6.89281 -6.59999 4.15
      vertex -6.83467 -6.687 2.55
      vertex -6.83467 -6.687 4.15
    endloop
  endfacet
  facet normal 0.89686 -0.442315 0
    outer loop
      vertex 6.89281 -6.59999 4.15
      vertex 6.9391 -6.50613 2.55
      vertex 6.9391 -6.50613 4.15
    endloop
  endfacet
  facet normal 0.89686 -0.442315 0
    outer loop
      vertex 6.9391 -6.50613 2.55
      vertex 6.89281 -6.59999 4.15
      vertex 6.89281 -6.59999 2.55
    endloop
  endfacet
  facet normal 0.555582 0.831462 -0
    outer loop
      vertex 6.687 6.83467 2.55
      vertex 6.59999 6.89281 4.15
      vertex 6.687 6.83467 4.15
    endloop
  endfacet
  facet normal 0.555582 0.831462 0
    outer loop
      vertex 6.59999 6.89281 4.15
      vertex 6.687 6.83467 2.55
      vertex 6.59999 6.89281 2.55
    endloop
  endfacet
  facet normal 0.65939 0.751801 -0
    outer loop
      vertex 6.76567 6.76567 2.55
      vertex 6.687 6.83467 4.15
      vertex 6.76567 6.76567 4.15
    endloop
  endfacet
  facet normal 0.65939 0.751801 0
    outer loop
      vertex 6.687 6.83467 4.15
      vertex 6.76567 6.76567 2.55
      vertex 6.687 6.83467 2.55
    endloop
  endfacet
  facet normal 0.831462 0.555582 0
    outer loop
      vertex 6.89281 6.59999 4.15
      vertex 6.83467 6.687 2.55
      vertex 6.83467 6.687 4.15
    endloop
  endfacet
  facet normal 0.831462 0.555582 0
    outer loop
      vertex 6.83467 6.687 2.55
      vertex 6.89281 6.59999 4.15
      vertex 6.89281 6.59999 2.55
    endloop
  endfacet
  facet normal -0.946949 0.321384 0
    outer loop
      vertex -6.97273 6.40704 2.55
      vertex -6.9391 6.50613 4.15
      vertex -6.9391 6.50613 2.55
    endloop
  endfacet
  facet normal -0.946949 0.321384 0
    outer loop
      vertex -6.9391 6.50613 4.15
      vertex -6.97273 6.40704 2.55
      vertex -6.97273 6.40704 4.15
    endloop
  endfacet
  facet normal -0.946949 -0.321384 0
    outer loop
      vertex -6.9391 -6.50613 2.55
      vertex -6.97273 -6.40704 4.15
      vertex -6.97273 -6.40704 2.55
    endloop
  endfacet
  facet normal -0.946949 -0.321384 0
    outer loop
      vertex -6.97273 -6.40704 4.15
      vertex -6.9391 -6.50613 2.55
      vertex -6.9391 -6.50613 4.15
    endloop
  endfacet
  facet normal -0.89686 -0.442315 0
    outer loop
      vertex -6.89281 -6.59999 2.55
      vertex -6.9391 -6.50613 4.15
      vertex -6.9391 -6.50613 2.55
    endloop
  endfacet
  facet normal -0.89686 -0.442315 0
    outer loop
      vertex -6.9391 -6.50613 4.15
      vertex -6.89281 -6.59999 2.55
      vertex -6.89281 -6.59999 4.15
    endloop
  endfacet
  facet normal 1 -0 0
    outer loop
      vertex 7 -6.2 4.15
      vertex 7 6.2 2.55
      vertex 7 6.2 4.15
    endloop
  endfacet
  facet normal 1 0 0
    outer loop
      vertex 7 6.2 2.55
      vertex 7 -6.2 4.15
      vertex 7 -6.2 2.55
    endloop
  endfacet
  facet normal 0 1 -0
    outer loop
      vertex 6.2 7 2.55
      vertex -6.2 7 4.15
      vertex 6.2 7 4.15
    endloop
  endfacet
  facet normal 0 1 0
    outer loop
      vertex -6.2 7 4.15
      vertex 6.2 7 2.55
      vertex -6.2 7 2.55
    endloop
  endfacet
  facet normal -0.997855 0.065466 0
    outer loop
      vertex -7 6.2 2.55
      vertex -6.99315 6.30441 4.15
      vertex -6.99315 6.30441 2.55
    endloop
  endfacet
  facet normal -0.997855 0.065466 0
    outer loop
      vertex -6.99315 6.30441 4.15
      vertex -7 6.2 2.55
      vertex -7 6.2 4.15
    endloop
  endfacet
  facet normal 0.751801 0.65939 0
    outer loop
      vertex 6.83467 6.687 4.15
      vertex 6.76567 6.76567 2.55
      vertex 6.76567 6.76567 4.15
    endloop
  endfacet
  facet normal 0.751801 0.65939 0
    outer loop
      vertex 6.76567 6.76567 2.55
      vertex 6.83467 6.687 4.15
      vertex 6.83467 6.687 2.55
    endloop
  endfacet
  facet normal 0.997855 -0.065466 0
    outer loop
      vertex 6.99315 -6.30441 4.15
      vertex 7 -6.2 2.55
      vertex 7 -6.2 4.15
    endloop
  endfacet
  facet normal 0.997855 -0.065466 0
    outer loop
      vertex 7 -6.2 2.55
      vertex 6.99315 -6.30441 4.15
      vertex 6.99315 -6.30441 2.55
    endloop
  endfacet
  facet normal -0.751801 0.65939 0
    outer loop
      vertex -6.83467 6.687 2.55
      vertex -6.76567 6.76567 4.15
      vertex -6.76567 6.76567 2.55
    endloop
  endfacet
  facet normal -0.751801 0.65939 0
    outer loop
      vertex -6.76567 6.76567 4.15
      vertex -6.83467 6.687 2.55
      vertex -6.83467 6.687 4.15
    endloop
  endfacet
  facet normal -0.997855 -0.065466 0
    outer loop
      vertex -6.99315 -6.30441 2.55
      vertex -7 -6.2 4.15
      vertex -7 -6.2 2.55
    endloop
  endfacet
  facet normal -0.997855 -0.065466 0
    outer loop
      vertex -7 -6.2 4.15
      vertex -6.99315 -6.30441 2.55
      vertex -6.99315 -6.30441 4.15
    endloop
  endfacet
  facet normal -0.831462 0.555582 0
    outer loop
      vertex -6.89281 6.59999 2.55
      vertex -6.83467 6.687 4.15
      vertex -6.83467 6.687 2.55
    endloop
  endfacet
  facet normal -0.831462 0.555582 0
    outer loop
      vertex -6.83467 6.687 4.15
      vertex -6.89281 6.59999 2.55
      vertex -6.89281 6.59999 4.15
    endloop
  endfacet
  facet normal 0.946949 -0.321384 0
    outer loop
      vertex 6.9391 -6.50613 4.15
      vertex 6.97273 -6.40704 2.55
      vertex 6.97273 -6.40704 4.15
    endloop
  endfacet
  facet normal 0.946949 -0.321384 0
    outer loop
      vertex 6.97273 -6.40704 2.55
      vertex 6.9391 -6.50613 4.15
      vertex 6.9391 -6.50613 2.55
    endloop
  endfacet
  facet normal -0.195157 -0.980772 0
    outer loop
      vertex -6.40704 -6.97273 2.55
      vertex -6.35 -6.98408 4.15
      vertex -6.40704 -6.97273 4.15
    endloop
  endfacet
  facet normal -0.195142 -0.980775 -5.59648e-07
    outer loop
      vertex -6.30441 -6.99315 2.55
      vertex -6.35 -6.98408 4.15
      vertex -6.40704 -6.97273 2.55
    endloop
  endfacet
  facet normal -0.195123 -0.980779 0
    outer loop
      vertex -6.35 -6.98408 4.15
      vertex -6.30441 -6.99315 2.55
      vertex -6.30441 -6.99315 4.15
    endloop
  endfacet
  facet normal -1 0 0
    outer loop
      vertex -7 -6.2 2.55
      vertex -7 6.2 4.15
      vertex -7 6.2 2.55
    endloop
  endfacet
  facet normal -1 -0 0
    outer loop
      vertex -7 6.2 4.15
      vertex -7 -6.2 2.55
      vertex -7 -6.2 4.15
    endloop
  endfacet
  facet normal 0.89686 0.442315 0
    outer loop
      vertex 6.9391 6.50613 4.15
      vertex 6.89281 6.59999 2.55
      vertex 6.89281 6.59999 4.15
    endloop
  endfacet
  facet normal 0.89686 0.442315 0
    outer loop
      vertex 6.89281 6.59999 2.55
      vertex 6.9391 6.50613 4.15
      vertex 6.9391 6.50613 2.55
    endloop
  endfacet
  facet normal 0.065466 0.997855 -0
    outer loop
      vertex 6.30441 6.99315 2.55
      vertex 6.2 7 4.15
      vertex 6.30441 6.99315 4.15
    endloop
  endfacet
  facet normal 0.065466 0.997855 0
    outer loop
      vertex 6.2 7 4.15
      vertex 6.30441 6.99315 2.55
      vertex 6.2 7 2.55
    endloop
  endfacet
  facet normal -0.980775 -0.195142 0
    outer loop
      vertex -6.97273 -6.40704 2.55
      vertex -6.99315 -6.30441 4.15
      vertex -6.99315 -6.30441 2.55
    endloop
  endfacet
  facet normal -0.980775 -0.195142 0
    outer loop
      vertex -6.99315 -6.30441 4.15
      vertex -6.97273 -6.40704 2.55
      vertex -6.97273 -6.40704 4.15
    endloop
  endfacet
  facet normal 0.195123 -0.980779 0
    outer loop
      vertex 6.30441 -6.99315 2.55
      vertex 6.35 -6.98408 4.15
      vertex 6.30441 -6.99315 4.15
    endloop
  endfacet
  facet normal 0.195142 -0.980775 -5.59648e-07
    outer loop
      vertex 6.40704 -6.97273 2.55
      vertex 6.35 -6.98408 4.15
      vertex 6.30441 -6.99315 2.55
    endloop
  endfacet
  facet normal 0.195157 -0.980772 0
    outer loop
      vertex 6.35 -6.98408 4.15
      vertex 6.40704 -6.97273 2.55
      vertex 6.40704 -6.97273 4.15
    endloop
  endfacet
  facet normal 0.997855 0.065466 0
    outer loop
      vertex 7 6.2 4.15
      vertex 6.99315 6.30441 2.55
      vertex 6.99315 6.30441 4.15
    endloop
  endfacet
  facet normal 0.997855 0.065466 0
    outer loop
      vertex 6.99315 6.30441 2.55
      vertex 7 6.2 4.15
      vertex 7 6.2 2.55
    endloop
  endfacet
  facet normal -0.555582 -0.831462 0
    outer loop
      vertex -6.687 -6.83467 2.55
      vertex -6.59999 -6.89281 4.15
      vertex -6.687 -6.83467 4.15
    endloop
  endfacet
  facet normal -0.555582 -0.831462 -0
    outer loop
      vertex -6.59999 -6.89281 4.15
      vertex -6.687 -6.83467 2.55
      vertex -6.59999 -6.89281 2.55
    endloop
  endfacet
  facet normal 0.946949 0.321384 0
    outer loop
      vertex 6.97273 6.40704 4.15
      vertex 6.9391 6.50613 2.55
      vertex 6.9391 6.50613 4.15
    endloop
  endfacet
  facet normal 0.946949 0.321384 0
    outer loop
      vertex 6.9391 6.50613 2.55
      vertex 6.97273 6.40704 4.15
      vertex 6.97273 6.40704 2.55
    endloop
  endfacet
  facet normal 0.442315 0.89686 -0
    outer loop
      vertex 6.59999 6.89281 2.55
      vertex 6.50613 6.9391 4.15
      vertex 6.59999 6.89281 4.15
    endloop
  endfacet
  facet normal 0.442315 0.89686 0
    outer loop
      vertex 6.50613 6.9391 4.15
      vertex 6.59999 6.89281 2.55
      vertex 6.50613 6.9391 2.55
    endloop
  endfacet
  facet normal 0.321384 0.946949 -0
    outer loop
      vertex 6.50613 6.9391 2.55
      vertex 6.40704 6.97273 4.15
      vertex 6.50613 6.9391 4.15
    endloop
  endfacet
  facet normal 0.321384 0.946949 0
    outer loop
      vertex 6.40704 6.97273 4.15
      vertex 6.50613 6.9391 2.55
      vertex 6.40704 6.97273 2.55
    endloop
  endfacet
  facet normal -0.321384 0.946949 0
    outer loop
      vertex -6.40704 6.97273 2.55
      vertex -6.50613 6.9391 4.15
      vertex -6.40704 6.97273 4.15
    endloop
  endfacet
  facet normal -0.321384 0.946949 0
    outer loop
      vertex -6.50613 6.9391 4.15
      vertex -6.40704 6.97273 2.55
      vertex -6.50613 6.9391 2.55
    endloop
  endfacet
  facet normal 0.751801 -0.65939 0
    outer loop
      vertex 6.76567 -6.76567 4.15
      vertex 6.83467 -6.687 2.55
      vertex 6.83467 -6.687 4.15
    endloop
  endfacet
  facet normal 0.751801 -0.65939 0
    outer loop
      vertex 6.83467 -6.687 2.55
      vertex 6.76567 -6.76567 4.15
      vertex 6.76567 -6.76567 2.55
    endloop
  endfacet
  facet normal -0.980775 0.195142 0
    outer loop
      vertex -6.99315 6.30441 2.55
      vertex -6.97273 6.40704 4.15
      vertex -6.97273 6.40704 2.55
    endloop
  endfacet
  facet normal -0.980775 0.195142 0
    outer loop
      vertex -6.97273 6.40704 4.15
      vertex -6.99315 6.30441 2.55
      vertex -6.99315 6.30441 4.15
    endloop
  endfacet
  facet normal -0.89686 0.442315 0
    outer loop
      vertex -6.9391 6.50613 2.55
      vertex -6.89281 6.59999 4.15
      vertex -6.89281 6.59999 2.55
    endloop
  endfacet
  facet normal -0.89686 0.442315 0
    outer loop
      vertex -6.89281 6.59999 4.15
      vertex -6.9391 6.50613 2.55
      vertex -6.9391 6.50613 4.15
    endloop
  endfacet
  facet normal -0.65939 -0.751801 0
    outer loop
      vertex -6.76567 -6.76567 2.55
      vertex -6.687 -6.83467 4.15
      vertex -6.76567 -6.76567 4.15
    endloop
  endfacet
  facet normal -0.65939 -0.751801 -0
    outer loop
      vertex -6.687 -6.83467 4.15
      vertex -6.76567 -6.76567 2.55
      vertex -6.687 -6.83467 2.55
    endloop
  endfacet
  facet normal 0 0 -1
    outer loop
      vertex 5.4 -6.32 2.55
      vertex 7 -6.2 2.55
      vertex 6.99315 -6.30441 2.55
    endloop
  endfacet
  facet normal 0 0 -1
    outer loop
      vertex 7 -6.2 2.55
      vertex 5.4 -5.68 2.55
      vertex 7 6.2 2.55
    endloop
  endfacet
  facet normal 0 0 -1
    outer loop
      vertex 5.4 -6.32 2.55
      vertex 6.99315 -6.30441 2.55
      vertex 6.97273 -6.40704 2.55
    endloop
  endfacet
  facet normal 0 0 -1
    outer loop
      vertex 4.76 -5.68 2.55
      vertex 7 6.2 2.55
      vertex 5.4 -5.68 2.55
    endloop
  endfacet
  facet normal 0 0 -1
    outer loop
      vertex 5.4 -6.32 2.55
      vertex 6.97273 -6.40704 2.55
      vertex 6.9391 -6.50613 2.55
    endloop
  endfacet
  facet normal 0 0 -1
    outer loop
      vertex 2.86 -5.68 2.55
      vertex 7 6.2 2.55
      vertex 4.76 -5.68 2.55
    endloop
  endfacet
  facet normal 0 0 -1
    outer loop
      vertex 5.4 -6.32 2.55
      vertex 6.9391 -6.50613 2.55
      vertex 6.89281 -6.59999 2.55
    endloop
  endfacet
  facet normal 0 0 -1
    outer loop
      vertex 2.22 -5.68 2.55
      vertex 7 6.2 2.55
      vertex 2.86 -5.68 2.55
    endloop
  endfacet
  facet normal 0 0 -1
    outer loop
      vertex 5.4 -6.32 2.55
      vertex 6.89281 -6.59999 2.55
      vertex 6.83467 -6.687 2.55
    endloop
  endfacet
  facet normal 0 -0 -1
    outer loop
      vertex 6.2 7 2.55
      vertex 7 6.2 2.55
      vertex 2.22 -5.68 2.55
    endloop
  endfacet
  facet normal 0 0 -1
    outer loop
      vertex 5.4 -6.32 2.55
      vertex 6.83467 -6.687 2.55
      vertex 6.76567 -6.76567 2.55
    endloop
  endfacet
  facet normal 0 0 -1
    outer loop
      vertex 7 6.2 2.55
      vertex 6.2 7 2.55
      vertex 6.99315 6.30441 2.55
    endloop
  endfacet
  facet normal 0 0 -1
    outer loop
      vertex 5.4 -6.32 2.55
      vertex 6.76567 -6.76567 2.55
      vertex 6.687 -6.83467 2.55
    endloop
  endfacet
  facet normal 0 0 -1
    outer loop
      vertex 6.97273 6.40704 2.55
      vertex 6.2 7 2.55
      vertex 6.9391 6.50613 2.55
    endloop
  endfacet
  facet normal 0 0 -1
    outer loop
      vertex 5.4 -6.32 2.55
      vertex 6.687 -6.83467 2.55
      vertex 6.59999 -6.89281 2.55
    endloop
  endfacet
  facet normal 0 0 -1
    outer loop
      vertex 6.9391 6.50613 2.55
      vertex 6.2 7 2.55
      vertex 6.89281 6.59999 2.55
    endloop
  endfacet
  facet normal 0 0 -1
    outer loop
      vertex 5.4 -6.32 2.55
      vertex 6.59999 -6.89281 2.55
      vertex 6.50613 -6.9391 2.55
    endloop
  endfacet
  facet normal 0 0 -1
    outer loop
      vertex 6.83467 6.687 2.55
      vertex 6.2 7 2.55
      vertex 6.76567 6.76567 2.55
    endloop
  endfacet
  facet normal 0 0 -1
    outer loop
      vertex 5.4 -6.32 2.55
      vertex 6.50613 -6.9391 2.55
      vertex 6.40704 -6.97273 2.55
    endloop
  endfacet
  facet normal 0 0 -1
    outer loop
      vertex 6.76567 6.76567 2.55
      vertex 6.2 7 2.55
      vertex 6.687 6.83467 2.55
    endloop
  endfacet
  facet normal 0 0 -1
    outer loop
      vertex 5.4 -6.32 2.55
      vertex 6.40704 -6.97273 2.55
      vertex 6.30441 -6.99315 2.55
    endloop
  endfacet
  facet normal 0 0 -1
    outer loop
      vertex 6.59999 6.89281 2.55
      vertex 6.2 7 2.55
      vertex 6.50613 6.9391 2.55
    endloop
  endfacet
  facet normal 0 0 -1
    outer loop
      vertex 5.4 -6.32 2.55
      vertex 6.30441 -6.99315 2.55
      vertex 6.2 -7 2.55
    endloop
  endfacet
  facet normal 0 0 -1
    outer loop
      vertex 6.50613 6.9391 2.55
      vertex 6.2 7 2.55
      vertex 6.40704 6.97273 2.55
    endloop
  endfacet
  facet normal -0 0 -1
    outer loop
      vertex 7 -6.2 2.55
      vertex 5.4 -6.32 2.55
      vertex 5.4 -5.68 2.55
    endloop
  endfacet
  facet normal 0 0 -1
    outer loop
      vertex 6.2 -7 2.55
      vertex 4.76 -6.32 2.55
      vertex 5.4 -6.32 2.55
    endloop
  endfacet
  facet normal 0 0 -1
    outer loop
      vertex 4.76 -6.32 2.55
      vertex 2.86 -6.32 2.55
      vertex 4.76 -5.68 2.55
    endloop
  endfacet
  facet normal 0 0 -1
    outer loop
      vertex 6.2 -7 2.55
      vertex 2.86 -6.32 2.55
      vertex 4.76 -6.32 2.55
    endloop
  endfacet
  facet normal 0 0 -1
    outer loop
      vertex 6.2 -7 2.55
      vertex 2.22 -6.32 2.55
      vertex 2.86 -6.32 2.55
    endloop
  endfacet
  facet normal 0 0 -1
    outer loop
      vertex 2.22 -6.32 2.55
      vertex 0.32 -6.32 2.55
      vertex 2.22 -5.68 2.55
    endloop
  endfacet
  facet normal 0 0 -1
    outer loop
      vertex 6.2 -7 2.55
      vertex 0.32 -6.32 2.55
      vertex 2.22 -6.32 2.55
    endloop
  endfacet
  facet normal 0 0 -1
    outer loop
      vertex 6.2 -7 2.55
      vertex -0.32 -6.32 2.55
      vertex 0.32 -6.32 2.55
    endloop
  endfacet
  facet normal 0 0 -1
    outer loop
      vertex -0.32 -6.32 2.55
      vertex -2.22 -6.32 2.55
      vertex -0.32 -5.68 2.55
    endloop
  endfacet
  facet normal 0 0 -1
    outer loop
      vertex -6.2 -7 2.55
      vertex -0.32 -6.32 2.55
      vertex 6.2 -7 2.55
    endloop
  endfacet
  facet normal -0 0 -1
    outer loop
      vertex -0.32 -6.32 2.55
      vertex -6.2 -7 2.55
      vertex -2.22 -6.32 2.55
    endloop
  endfacet
  facet normal 0 0 -1
    outer loop
      vertex -2.86 -6.32 2.55
      vertex -4.76 -6.32 2.55
      vertex -2.86 -5.68 2.55
    endloop
  endfacet
  facet normal -0 0 -1
    outer loop
      vertex -2.22 -6.32 2.55
      vertex -6.2 -7 2.55
      vertex -2.86 -6.32 2.55
    endloop
  endfacet
  facet normal -0 0 -1
    outer loop
      vertex -2.86 -6.32 2.55
      vertex -6.2 -7 2.55
      vertex -4.76 -6.32 2.55
    endloop
  endfacet
  facet normal 0 0 -1
    outer loop
      vertex -7 -6.2 2.55
      vertex -5.4 -6.32 2.55
      vertex -6.2 -7 2.55
    endloop
  endfacet
  facet normal -0 0 -1
    outer loop
      vertex -4.76 -6.32 2.55
      vertex -6.2 -7 2.55
      vertex -5.4 -6.32 2.55
    endloop
  endfacet
  facet normal 0 0 -1
    outer loop
      vertex 6.40704 6.97273 2.55
      vertex 6.2 7 2.55
      vertex 6.30441 6.99315 2.55
    endloop
  endfacet
  facet normal 0 0 -1
    outer loop
      vertex 6.687 6.83467 2.55
      vertex 6.2 7 2.55
      vertex 6.59999 6.89281 2.55
    endloop
  endfacet
  facet normal 0 0 -1
    outer loop
      vertex 2.86 -5.68 2.55
      vertex 4.76 -5.68 2.55
      vertex 2.86 -6.32 2.55
    endloop
  endfacet
  facet normal 0 0 -1
    outer loop
      vertex 6.89281 6.59999 2.55
      vertex 6.2 7 2.55
      vertex 6.83467 6.687 2.55
    endloop
  endfacet
  facet normal 0 0 -1
    outer loop
      vertex 6.99315 6.30441 2.55
      vertex 6.2 7 2.55
      vertex 6.97273 6.40704 2.55
    endloop
  endfacet
  facet normal 0 0 -1
    outer loop
      vertex 0.32 -5.68 2.55
      vertex 2.22 -5.68 2.55
      vertex 0.32 -6.32 2.55
    endloop
  endfacet
  facet normal 0 0 -1
    outer loop
      vertex 2.22 -5.68 2.55
      vertex 0.32 -5.68 2.55
      vertex 6.2 7 2.55
    endloop
  endfacet
  facet normal 0 0 -1
    outer loop
      vertex -0.32 -5.68 2.55
      vertex 6.2 7 2.55
      vertex 0.32 -5.68 2.55
    endloop
  endfacet
  facet normal 0 0 -1
    outer loop
      vertex -2.22 -5.68 2.55
      vertex -0.32 -5.68 2.55
      vertex -2.22 -6.32 2.55
    endloop
  endfacet
  facet normal 0 0 -1
    outer loop
      vertex -6.2 7 2.55
      vertex -0.32 -5.68 2.55
      vertex -2.22 -5.68 2.55
    endloop
  endfacet
  facet normal 0 0 -1
    outer loop
      vertex -7 6.2 2.55
      vertex -2.22 -5.68 2.55
      vertex -2.86 -5.68 2.55
    endloop
  endfacet
  facet normal 0 0 -1
    outer loop
      vertex -4.76 -5.68 2.55
      vertex -2.86 -5.68 2.55
      vertex -4.76 -6.32 2.55
    endloop
  endfacet
  facet normal 0 0 -1
    outer loop
      vertex -7 6.2 2.55
      vertex -2.86 -5.68 2.55
      vertex -4.76 -5.68 2.55
    endloop
  endfacet
  facet normal 0 0 -1
    outer loop
      vertex -7 6.2 2.55
      vertex -4.76 -5.68 2.55
      vertex -5.4 -5.68 2.55
    endloop
  endfacet
  facet normal 0 0 -1
    outer loop
      vertex -0.32 -5.68 2.55
      vertex -6.2 7 2.55
      vertex 6.2 7 2.55
    endloop
  endfacet
  facet normal 0 0 -1
    outer loop
      vertex -5.4 -6.32 2.55
      vertex -7 -6.2 2.55
      vertex -5.4 -5.68 2.55
    endloop
  endfacet
  facet normal 0 0 -1
    outer loop
      vertex -7 -6.2 2.55
      vertex -6.2 -7 2.55
      vertex -6.30441 -6.99315 2.55
    endloop
  endfacet
  facet normal 0 0 -1
    outer loop
      vertex -7 6.2 2.55
      vertex -5.4 -5.68 2.55
      vertex -7 -6.2 2.55
    endloop
  endfacet
  facet normal 0 0 -1
    outer loop
      vertex -7 -6.2 2.55
      vertex -6.30441 -6.99315 2.55
      vertex -6.40704 -6.97273 2.55
    endloop
  endfacet
  facet normal 0 0 -1
    outer loop
      vertex -2.22 -5.68 2.55
      vertex -7 6.2 2.55
      vertex -6.2 7 2.55
    endloop
  endfacet
  facet normal 0 0 -1
    outer loop
      vertex -7 -6.2 2.55
      vertex -6.40704 -6.97273 2.55
      vertex -6.50613 -6.9391 2.55
    endloop
  endfacet
  facet normal 0 0 -1
    outer loop
      vertex -6.2 7 2.55
      vertex -7 6.2 2.55
      vertex -6.30441 6.99315 2.55
    endloop
  endfacet
  facet normal 0 0 -1
    outer loop
      vertex -7 -6.2 2.55
      vertex -6.50613 -6.9391 2.55
      vertex -6.59999 -6.89281 2.55
    endloop
  endfacet
  facet normal 0 0 -1
    outer loop
      vertex -6.30441 6.99315 2.55
      vertex -7 6.2 2.55
      vertex -6.40704 6.97273 2.55
    endloop
  endfacet
  facet normal 0 0 -1
    outer loop
      vertex -7 -6.2 2.55
      vertex -6.59999 -6.89281 2.55
      vertex -6.687 -6.83467 2.55
    endloop
  endfacet
  facet normal 0 0 -1
    outer loop
      vertex -6.40704 6.97273 2.55
      vertex -7 6.2 2.55
      vertex -6.50613 6.9391 2.55
    endloop
  endfacet
  facet normal 0 0 -1
    outer loop
      vertex -7 -6.2 2.55
      vertex -6.687 -6.83467 2.55
      vertex -6.76567 -6.76567 2.55
    endloop
  endfacet
  facet normal 0 0 -1
    outer loop
      vertex -6.50613 6.9391 2.55
      vertex -7 6.2 2.55
      vertex -6.59999 6.89281 2.55
    endloop
  endfacet
  facet normal 0 0 -1
    outer loop
      vertex -7 -6.2 2.55
      vertex -6.76567 -6.76567 2.55
      vertex -6.83467 -6.687 2.55
    endloop
  endfacet
  facet normal 0 0 -1
    outer loop
      vertex -6.59999 6.89281 2.55
      vertex -7 6.2 2.55
      vertex -6.687 6.83467 2.55
    endloop
  endfacet
  facet normal 0 0 -1
    outer loop
      vertex -7 -6.2 2.55
      vertex -6.83467 -6.687 2.55
      vertex -6.89281 -6.59999 2.55
    endloop
  endfacet
  facet normal 0 0 -1
    outer loop
      vertex -6.687 6.83467 2.55
      vertex -7 6.2 2.55
      vertex -6.76567 6.76567 2.55
    endloop
  endfacet
  facet normal 0 0 -1
    outer loop
      vertex -7 -6.2 2.55
      vertex -6.89281 -6.59999 2.55
      vertex -6.9391 -6.50613 2.55
    endloop
  endfacet
  facet normal 0 0 -1
    outer loop
      vertex -6.76567 6.76567 2.55
      vertex -7 6.2 2.55
      vertex -6.83467 6.687 2.55
    endloop
  endfacet
  facet normal 0 0 -1
    outer loop
      vertex -7 -6.2 2.55
      vertex -6.9391 -6.50613 2.55
      vertex -6.97273 -6.40704 2.55
    endloop
  endfacet
  facet normal 0 0 -1
    outer loop
      vertex -6.83467 6.687 2.55
      vertex -7 6.2 2.55
      vertex -6.89281 6.59999 2.55
    endloop
  endfacet
  facet normal 0 0 -1
    outer loop
      vertex -7 -6.2 2.55
      vertex -6.97273 -6.40704 2.55
      vertex -6.99315 -6.30441 2.55
    endloop
  endfacet
  facet normal 0 0 -1
    outer loop
      vertex -6.89281 6.59999 2.55
      vertex -7 6.2 2.55
      vertex -6.9391 6.50613 2.55
    endloop
  endfacet
  facet normal 0 0 -1
    outer loop
      vertex -6.9391 6.50613 2.55
      vertex -7 6.2 2.55
      vertex -6.97273 6.40704 2.55
    endloop
  endfacet
  facet normal 0 0 -1
    outer loop
      vertex -6.97273 6.40704 2.55
      vertex -7 6.2 2.55
      vertex -6.99315 6.30441 2.55
    endloop
  endfacet
  facet normal -0.555582 0.831462 0
    outer loop
      vertex -6.59999 6.89281 2.55
      vertex -6.687 6.83467 4.15
      vertex -6.59999 6.89281 4.15
    endloop
  endfacet
  facet normal -0.555582 0.831462 0
    outer loop
      vertex -6.687 6.83467 4.15
      vertex -6.59999 6.89281 2.55
      vertex -6.687 6.83467 2.55
    endloop
  endfacet
  facet normal 0.980775 0.195142 0
    outer loop
      vertex 6.99315 6.30441 4.15
      vertex 6.97273 6.40704 2.55
      vertex 6.97273 6.40704 4.15
    endloop
  endfacet
  facet normal 0.980775 0.195142 0
    outer loop
      vertex 6.97273 6.40704 2.55
      vertex 6.99315 6.30441 4.15
      vertex 6.99315 6.30441 2.55
    endloop
  endfacet
  facet normal -0.065466 -0.997855 0
    outer loop
      vertex -6.30441 -6.99315 2.55
      vertex -6.2 -7 4.15
      vertex -6.30441 -6.99315 4.15
    endloop
  endfacet
  facet normal -0.065466 -0.997855 -0
    outer loop
      vertex -6.2 -7 4.15
      vertex -6.30441 -6.99315 2.55
      vertex -6.2 -7 2.55
    endloop
  endfacet
  facet normal -0.195142 0.980775 0
    outer loop
      vertex -6.30441 6.99315 2.55
      vertex -6.40704 6.97273 4.15
      vertex -6.30441 6.99315 4.15
    endloop
  endfacet
  facet normal -0.195142 0.980775 0
    outer loop
      vertex -6.40704 6.97273 4.15
      vertex -6.30441 6.99315 2.55
      vertex -6.40704 6.97273 2.55
    endloop
  endfacet
  facet normal 0.195142 0.980775 -0
    outer loop
      vertex 6.40704 6.97273 2.55
      vertex 6.30441 6.99315 4.15
      vertex 6.40704 6.97273 4.15
    endloop
  endfacet
  facet normal 0.195142 0.980775 0
    outer loop
      vertex 6.30441 6.99315 4.15
      vertex 6.40704 6.97273 2.55
      vertex 6.30441 6.99315 2.55
    endloop
  endfacet
  facet normal 0 -1 0
    outer loop
      vertex -6.2 -7 2.55
      vertex 6.2 -7 4.15
      vertex -6.2 -7 4.15
    endloop
  endfacet
  facet normal 0 -1 -0
    outer loop
      vertex 6.2 -7 4.15
      vertex -6.2 -7 2.55
      vertex 6.2 -7 2.55
    endloop
  endfacet
  facet normal -0.442315 -0.89686 0
    outer loop
      vertex -6.59999 -6.89281 2.55
      vertex -6.50613 -6.9391 4.15
      vertex -6.59999 -6.89281 4.15
    endloop
  endfacet
  facet normal -0.442315 -0.89686 -0
    outer loop
      vertex -6.50613 -6.9391 4.15
      vertex -6.59999 -6.89281 2.55
      vertex -6.50613 -6.9391 2.55
    endloop
  endfacet
  facet normal 0.831462 -0.555582 0
    outer loop
      vertex 6.83467 -6.687 4.15
      vertex 6.89281 -6.59999 2.55
      vertex 6.89281 -6.59999 4.15
    endloop
  endfacet
  facet normal 0.831462 -0.555582 0
    outer loop
      vertex 6.89281 -6.59999 2.55
      vertex 6.83467 -6.687 4.15
      vertex 6.83467 -6.687 2.55
    endloop
  endfacet
  facet normal -0.751801 -0.65939 0
    outer loop
      vertex -6.76567 -6.76567 2.55
      vertex -6.83467 -6.687 4.15
      vertex -6.83467 -6.687 2.55
    endloop
  endfacet
  facet normal -0.751801 -0.65939 0
    outer loop
      vertex -6.83467 -6.687 4.15
      vertex -6.76567 -6.76567 2.55
      vertex -6.76567 -6.76567 4.15
    endloop
  endfacet
  facet normal -0.65939 0.751801 0
    outer loop
      vertex -6.687 6.83467 2.55
      vertex -6.76567 6.76567 4.15
      vertex -6.687 6.83467 4.15
    endloop
  endfacet
  facet normal -0.65939 0.751801 0
    outer loop
      vertex -6.76567 6.76567 4.15
      vertex -6.687 6.83467 2.55
      vertex -6.76567 6.76567 2.55
    endloop
  endfacet
  facet normal 0.442315 -0.89686 0
    outer loop
      vertex 6.50613 -6.9391 2.55
      vertex 6.59999 -6.89281 4.15
      vertex 6.50613 -6.9391 4.15
    endloop
  endfacet
  facet normal 0.442315 -0.89686 0
    outer loop
      vertex 6.59999 -6.89281 4.15
      vertex 6.50613 -6.9391 2.55
      vertex 6.59999 -6.89281 2.55
    endloop
  endfacet
  facet normal -0.065466 0.997855 0
    outer loop
      vertex -6.2 7 2.55
      vertex -6.30441 6.99315 4.15
      vertex -6.2 7 4.15
    endloop
  endfacet
  facet normal -0.065466 0.997855 0
    outer loop
      vertex -6.30441 6.99315 4.15
      vertex -6.2 7 2.55
      vertex -6.30441 6.99315 2.55
    endloop
  endfacet
  facet normal -0.321384 -0.946949 0
    outer loop
      vertex -6.50613 -6.9391 2.55
      vertex -6.40704 -6.97273 4.15
      vertex -6.50613 -6.9391 4.15
    endloop
  endfacet
  facet normal -0.321384 -0.946949 -0
    outer loop
      vertex -6.40704 -6.97273 4.15
      vertex -6.50613 -6.9391 2.55
      vertex -6.40704 -6.97273 2.55
    endloop
  endfacet
  facet normal 0.065466 -0.997855 0
    outer loop
      vertex 6.2 -7 2.55
      vertex 6.30441 -6.99315 4.15
      vertex 6.2 -7 4.15
    endloop
  endfacet
  facet normal 0.065466 -0.997855 0
    outer loop
      vertex 6.30441 -6.99315 4.15
      vertex 6.2 -7 2.55
      vertex 6.30441 -6.99315 2.55
    endloop
  endfacet
  facet normal 0.980775 -0.195142 0
    outer loop
      vertex 6.97273 -6.40704 4.15
      vertex 6.99315 -6.30441 2.55
      vertex 6.99315 -6.30441 4.15
    endloop
  endfacet
  facet normal 0.980775 -0.195142 0
    outer loop
      vertex 6.99315 -6.30441 2.55
      vertex 6.97273 -6.40704 4.15
      vertex 6.97273 -6.40704 2.55
    endloop
  endfacet
  facet normal -0.442315 0.89686 0
    outer loop
      vertex -6.50613 6.9391 2.55
      vertex -6.59999 6.89281 4.15
      vertex -6.50613 6.9391 4.15
    endloop
  endfacet
  facet normal -0.442315 0.89686 0
    outer loop
      vertex -6.59999 6.89281 4.15
      vertex -6.50613 6.9391 2.55
      vertex -6.59999 6.89281 2.55
    endloop
  endfacet
  facet normal 0.321384 -0.946949 0
    outer loop
      vertex 6.40704 -6.97273 2.55
      vertex 6.50613 -6.9391 4.15
      vertex 6.40704 -6.97273 4.15
    endloop
  endfacet
  facet normal 0.321384 -0.946949 0
    outer loop
      vertex 6.50613 -6.9391 4.15
      vertex 6.40704 -6.97273 2.55
      vertex 6.50613 -6.9391 2.55
    endloop
  endfacet
  facet normal 0.65939 -0.751801 0
    outer loop
      vertex 6.687 -6.83467 2.55
      vertex 6.76567 -6.76567 4.15
      vertex 6.687 -6.83467 4.15
    endloop
  endfacet
  facet normal 0.65939 -0.751801 0
    outer loop
      vertex 6.76567 -6.76567 4.15
      vertex 6.687 -6.83467 2.55
      vertex 6.76567 -6.76567 2.55
    endloop
  endfacet
  facet normal 0.555582 -0.831462 0
    outer loop
      vertex 6.59999 -6.89281 2.55
      vertex 6.687 -6.83467 4.15
      vertex 6.59999 -6.89281 4.15
    endloop
  endfacet
  facet normal 0.555582 -0.831462 0
    outer loop
      vertex 6.687 -6.83467 4.15
      vertex 6.59999 -6.89281 2.55
      vertex 6.687 -6.83467 2.55
    endloop
  endfacet
  facet normal 1 -0 0
    outer loop
      vertex 2.8 -1.65 5.65
      vertex 2.8 1.65 4.15
      vertex 2.8 1.65 5.65
    endloop
  endfacet
  facet normal 1 0 0
    outer loop
      vertex 2.8 1.65 4.15
      vertex 2.8 -1.65 5.65
      vertex 2.8 -1.65 4.15
    endloop
  endfacet
  facet normal 0 0 1
    outer loop
      vertex -1.69037 0.452933 5.65
      vertex -2.8 1.65 5.65
      vertex -1.75 0 5.65
    endloop
  endfacet
  facet normal 0 0 1
    outer loop
      vertex -1.51554 0.875 5.65
      vertex -2.8 1.65 5.65
      vertex -1.69037 0.452933 5.65
    endloop
  endfacet
  facet normal 0 0 1
    outer loop
      vertex -1.23744 1.23744 5.65
      vertex -2.8 1.65 5.65
      vertex -1.51554 0.875 5.65
    endloop
  endfacet
  facet normal 0 0 1
    outer loop
      vertex -0.875 1.51554 5.65
      vertex -2.8 1.65 5.65
      vertex -1.23744 1.23744 5.65
    endloop
  endfacet
  facet normal -0 0 1
    outer loop
      vertex -2.8 1.65 5.65
      vertex -0.875 1.51554 5.65
      vertex -0.550395 1.65 5.65
    endloop
  endfacet
  facet normal 0 0 1
    outer loop
      vertex -2.8 -1.65 5.65
      vertex -1.75 0 5.65
      vertex -2.8 1.65 5.65
    endloop
  endfacet
  facet normal 0 0 1
    outer loop
      vertex -1.75 0 5.65
      vertex -2.8 -1.65 5.65
      vertex -1.69037 -0.452933 5.65
    endloop
  endfacet
  facet normal 0 0 1
    outer loop
      vertex -0.875 -1.51554 5.65
      vertex -2.8 -1.65 5.65
      vertex -0.550395 -1.65 5.65
    endloop
  endfacet
  facet normal 0 0 1
    outer loop
      vertex -1.23744 -1.23744 5.65
      vertex -2.8 -1.65 5.65
      vertex -0.875 -1.51554 5.65
    endloop
  endfacet
  facet normal 0 0 1
    outer loop
      vertex -1.51554 -0.875 5.65
      vertex -2.8 -1.65 5.65
      vertex -1.23744 -1.23744 5.65
    endloop
  endfacet
  facet normal 0 0 1
    outer loop
      vertex -1.69037 -0.452933 5.65
      vertex -2.8 -1.65 5.65
      vertex -1.51554 -0.875 5.65
    endloop
  endfacet
  facet normal 0 0 1
    outer loop
      vertex 2.8 1.65 5.65
      vertex 1.75 0 5.65
      vertex 2.8 -1.65 5.65
    endloop
  endfacet
  facet normal 0 0 1
    outer loop
      vertex 2.8 1.65 5.65
      vertex 1.69037 0.452933 5.65
      vertex 1.75 0 5.65
    endloop
  endfacet
  facet normal 0 0 1
    outer loop
      vertex 2.8 1.65 5.65
      vertex 1.51554 0.875 5.65
      vertex 1.69037 0.452933 5.65
    endloop
  endfacet
  facet normal 0 0 1
    outer loop
      vertex 2.8 1.65 5.65
      vertex 1.23744 1.23744 5.65
      vertex 1.51554 0.875 5.65
    endloop
  endfacet
  facet normal 0 0 1
    outer loop
      vertex 2.8 1.65 5.65
      vertex 0.875 1.51554 5.65
      vertex 1.23744 1.23744 5.65
    endloop
  endfacet
  facet normal 0 -0 1
    outer loop
      vertex 0.875 1.51554 5.65
      vertex 2.8 1.65 5.65
      vertex 0.550395 1.65 5.65
    endloop
  endfacet
  facet normal -0 0 1
    outer loop
      vertex 1.69037 -0.452933 5.65
      vertex 2.8 -1.65 5.65
      vertex 1.75 0 5.65
    endloop
  endfacet
  facet normal -0 0 1
    outer loop
      vertex 1.51554 -0.875 5.65
      vertex 2.8 -1.65 5.65
      vertex 1.69037 -0.452933 5.65
    endloop
  endfacet
  facet normal -0 0 1
    outer loop
      vertex 1.23744 -1.23744 5.65
      vertex 2.8 -1.65 5.65
      vertex 1.51554 -0.875 5.65
    endloop
  endfacet
  facet normal -0 0 1
    outer loop
      vertex 0.875 -1.51554 5.65
      vertex 2.8 -1.65 5.65
      vertex 1.23744 -1.23744 5.65
    endloop
  endfacet
  facet normal 0 0 1
    outer loop
      vertex 2.8 -1.65 5.65
      vertex 0.875 -1.51554 5.65
      vertex 0.550395 -1.65 5.65
    endloop
  endfacet
  facet normal 0 0 -1
    outer loop
      vertex 0 -1.75 5.65
      vertex 0.550395 -1.65 5.65
      vertex 0.452933 -1.69037 5.65
    endloop
  endfacet
  facet normal 0 0 -1
    outer loop
      vertex -0.550395 -1.65 5.65
      vertex 0 -1.75 5.65
      vertex -0.452933 -1.69037 5.65
    endloop
  endfacet
  facet normal 0 0 -1
    outer loop
      vertex 0 -1.75 5.65
      vertex -0.550395 -1.65 5.65
      vertex 0.550395 -1.65 5.65
    endloop
  endfacet
  facet normal 0 0 -1
    outer loop
      vertex 0.550395 1.65 5.65
      vertex 0 1.75 5.65
      vertex 0.452933 1.69037 5.65
    endloop
  endfacet
  facet normal 0 0 -1
    outer loop
      vertex -0.550395 1.65 5.65
      vertex 0 1.75 5.65
      vertex 0.550395 1.65 5.65
    endloop
  endfacet
  facet normal 0 0 -1
    outer loop
      vertex 0 1.75 5.65
      vertex -0.550395 1.65 5.65
      vertex -0.452933 1.69037 5.65
    endloop
  endfacet
  facet normal -1 0 0
    outer loop
      vertex -2.8 -1.65 4.15
      vertex -2.8 1.65 5.65
      vertex -2.8 1.65 4.15
    endloop
  endfacet
  facet normal -1 -0 0
    outer loop
      vertex -2.8 1.65 5.65
      vertex -2.8 -1.65 4.15
      vertex -2.8 -1.65 5.65
    endloop
  endfacet
  facet normal 0 1 -0
    outer loop
      vertex 2.8 1.65 4.15
      vertex 0.550395 1.65 5.65
      vertex 2.8 1.65 5.65
    endloop
  endfacet
  facet normal 0 1 0
    outer loop
      vertex 0.550395 1.65 5.65
      vertex 2.8 1.65 4.15
      vertex -0.550395 1.65 5.65
    endloop
  endfacet
  facet normal 0 1 0
    outer loop
      vertex -2.8 1.65 4.15
      vertex -0.550395 1.65 5.65
      vertex 2.8 1.65 4.15
    endloop
  endfacet
  facet normal 0 1 0
    outer loop
      vertex -0.550395 1.65 5.65
      vertex -2.8 1.65 4.15
      vertex -2.8 1.65 5.65
    endloop
  endfacet
  facet normal 0 -1 0
    outer loop
      vertex -2.8 -1.65 4.15
      vertex -0.550395 -1.65 5.65
      vertex -2.8 -1.65 5.65
    endloop
  endfacet
  facet normal 0 -1 -0
    outer loop
      vertex -0.550395 -1.65 5.65
      vertex -2.8 -1.65 4.15
      vertex 0.550395 -1.65 5.65
    endloop
  endfacet
  facet normal 0 -1 0
    outer loop
      vertex 2.8 -1.65 4.15
      vertex 0.550395 -1.65 5.65
      vertex -2.8 -1.65 4.15
    endloop
  endfacet
  facet normal 0 -1 0
    outer loop
      vertex 0.550395 -1.65 5.65
      vertex 2.8 -1.65 4.15
      vertex 2.8 -1.65 5.65
    endloop
  endfacet
  facet normal 0.923876 0.382691 0
    outer loop
      vertex 1.69037 0.452933 6.05
      vertex 1.51554 0.875 5.65
      vertex 1.51554 0.875 6.05
    endloop
  endfacet
  facet normal 0.923876 0.382691 0
    outer loop
      vertex 1.51554 0.875 5.65
      vertex 1.69037 0.452933 6.05
      vertex 1.69037 0.452933 5.65
    endloop
  endfacet
  facet normal 0.991445 0.130527 0
    outer loop
      vertex 1.75 0 6.05
      vertex 1.69037 0.452933 5.65
      vertex 1.69037 0.452933 6.05
    endloop
  endfacet
  facet normal 0.991445 0.130527 0
    outer loop
      vertex 1.69037 0.452933 5.65
      vertex 1.75 0 6.05
      vertex 1.75 0 5.65
    endloop
  endfacet
  facet normal -0.608748 0.793364 0
    outer loop
      vertex -0.875 1.51554 5.65
      vertex -1.23744 1.23744 6.05
      vertex -0.875 1.51554 6.05
    endloop
  endfacet
  facet normal -0.608748 0.793364 0
    outer loop
      vertex -1.23744 1.23744 6.05
      vertex -0.875 1.51554 5.65
      vertex -1.23744 1.23744 5.65
    endloop
  endfacet
  facet normal -0.382683 0.92388 0
    outer loop
      vertex -0.550395 1.65 5.65
      vertex -0.452933 1.69037 6.05
      vertex -0.452933 1.69037 5.65
    endloop
  endfacet
  facet normal -0.382691 0.923876 2.3896e-06
    outer loop
      vertex -0.452933 1.69037 6.05
      vertex -0.550395 1.65 5.65
      vertex -0.875 1.51554 6.05
    endloop
  endfacet
  facet normal -0.382694 0.923875 0
    outer loop
      vertex -0.875 1.51554 6.05
      vertex -0.550395 1.65 5.65
      vertex -0.875 1.51554 5.65
    endloop
  endfacet
  facet normal 0.608748 -0.793364 0
    outer loop
      vertex 0.875 -1.51554 5.65
      vertex 1.23744 -1.23744 6.05
      vertex 0.875 -1.51554 6.05
    endloop
  endfacet
  facet normal 0.608748 -0.793364 0
    outer loop
      vertex 1.23744 -1.23744 6.05
      vertex 0.875 -1.51554 5.65
      vertex 1.23744 -1.23744 5.65
    endloop
  endfacet
  facet normal 0.608748 0.793364 -0
    outer loop
      vertex 1.23744 1.23744 5.65
      vertex 0.875 1.51554 6.05
      vertex 1.23744 1.23744 6.05
    endloop
  endfacet
  facet normal 0.608748 0.793364 0
    outer loop
      vertex 0.875 1.51554 6.05
      vertex 1.23744 1.23744 5.65
      vertex 0.875 1.51554 5.65
    endloop
  endfacet
  facet normal -0.991445 0.130527 0
    outer loop
      vertex -1.75 0 5.65
      vertex -1.69037 0.452933 6.05
      vertex -1.69037 0.452933 5.65
    endloop
  endfacet
  facet normal -0.991445 0.130527 0
    outer loop
      vertex -1.69037 0.452933 6.05
      vertex -1.75 0 5.65
      vertex -1.75 0 6.05
    endloop
  endfacet
  facet normal -0.130527 -0.991445 0
    outer loop
      vertex -0.452933 -1.69037 5.65
      vertex 0 -1.75 6.05
      vertex -0.452933 -1.69037 6.05
    endloop
  endfacet
  facet normal -0.130527 -0.991445 -0
    outer loop
      vertex 0 -1.75 6.05
      vertex -0.452933 -1.69037 5.65
      vertex 0 -1.75 5.65
    endloop
  endfacet
  facet normal 0.130527 0.991445 -0
    outer loop
      vertex 0.452933 1.69037 5.65
      vertex 0 1.75 6.05
      vertex 0.452933 1.69037 6.05
    endloop
  endfacet
  facet normal 0.130527 0.991445 0
    outer loop
      vertex 0 1.75 6.05
      vertex 0.452933 1.69037 5.65
      vertex 0 1.75 5.65
    endloop
  endfacet
  facet normal 0.382694 0.923875 0
    outer loop
      vertex 0.550395 1.65 5.65
      vertex 0.875 1.51554 6.05
      vertex 0.875 1.51554 5.65
    endloop
  endfacet
  facet normal 0.382691 0.923876 2.3896e-06
    outer loop
      vertex 0.875 1.51554 6.05
      vertex 0.550395 1.65 5.65
      vertex 0.452933 1.69037 6.05
    endloop
  endfacet
  facet normal 0.382683 0.92388 0
    outer loop
      vertex 0.452933 1.69037 6.05
      vertex 0.550395 1.65 5.65
      vertex 0.452933 1.69037 5.65
    endloop
  endfacet
  facet normal -0.608748 -0.793364 0
    outer loop
      vertex -1.23744 -1.23744 5.65
      vertex -0.875 -1.51554 6.05
      vertex -1.23744 -1.23744 6.05
    endloop
  endfacet
  facet normal -0.608748 -0.793364 -0
    outer loop
      vertex -0.875 -1.51554 6.05
      vertex -1.23744 -1.23744 5.65
      vertex -0.875 -1.51554 5.65
    endloop
  endfacet
  facet normal 0.793364 0.608748 0
    outer loop
      vertex 1.51554 0.875 6.05
      vertex 1.23744 1.23744 5.65
      vertex 1.23744 1.23744 6.05
    endloop
  endfacet
  facet normal 0.793364 0.608748 0
    outer loop
      vertex 1.23744 1.23744 5.65
      vertex 1.51554 0.875 6.05
      vertex 1.51554 0.875 5.65
    endloop
  endfacet
  facet normal 0.130527 -0.991445 0
    outer loop
      vertex 0 -1.75 5.65
      vertex 0.452933 -1.69037 6.05
      vertex 0 -1.75 6.05
    endloop
  endfacet
  facet normal 0.130527 -0.991445 0
    outer loop
      vertex 0.452933 -1.69037 6.05
      vertex 0 -1.75 5.65
      vertex 0.452933 -1.69037 5.65
    endloop
  endfacet
  facet normal 0.793364 -0.608748 0
    outer loop
      vertex 1.23744 -1.23744 6.05
      vertex 1.51554 -0.875 5.65
      vertex 1.51554 -0.875 6.05
    endloop
  endfacet
  facet normal 0.793364 -0.608748 0
    outer loop
      vertex 1.51554 -0.875 5.65
      vertex 1.23744 -1.23744 6.05
      vertex 1.23744 -1.23744 5.65
    endloop
  endfacet
  facet normal 0.382683 -0.92388 0
    outer loop
      vertex 0.550395 -1.65 5.65
      vertex 0.452933 -1.69037 6.05
      vertex 0.452933 -1.69037 5.65
    endloop
  endfacet
  facet normal 0.382691 -0.923876 2.3896e-06
    outer loop
      vertex 0.452933 -1.69037 6.05
      vertex 0.550395 -1.65 5.65
      vertex 0.875 -1.51554 6.05
    endloop
  endfacet
  facet normal 0.382694 -0.923875 0
    outer loop
      vertex 0.875 -1.51554 6.05
      vertex 0.550395 -1.65 5.65
      vertex 0.875 -1.51554 5.65
    endloop
  endfacet
  facet normal -0.793364 0.608748 0
    outer loop
      vertex -1.51554 0.875 5.65
      vertex -1.23744 1.23744 6.05
      vertex -1.23744 1.23744 5.65
    endloop
  endfacet
  facet normal -0.793364 0.608748 0
    outer loop
      vertex -1.23744 1.23744 6.05
      vertex -1.51554 0.875 5.65
      vertex -1.51554 0.875 6.05
    endloop
  endfacet
  facet normal -0.793364 -0.608748 0
    outer loop
      vertex -1.23744 -1.23744 5.65
      vertex -1.51554 -0.875 6.05
      vertex -1.51554 -0.875 5.65
    endloop
  endfacet
  facet normal -0.793364 -0.608748 0
    outer loop
      vertex -1.51554 -0.875 6.05
      vertex -1.23744 -1.23744 5.65
      vertex -1.23744 -1.23744 6.05
    endloop
  endfacet
  facet normal 0.991445 -0.130527 0
    outer loop
      vertex 1.69037 -0.452933 6.05
      vertex 1.75 0 5.65
      vertex 1.75 0 6.05
    endloop
  endfacet
  facet normal 0.991445 -0.130527 0
    outer loop
      vertex 1.75 0 5.65
      vertex 1.69037 -0.452933 6.05
      vertex 1.69037 -0.452933 5.65
    endloop
  endfacet
  facet normal -0.130527 0.991445 0
    outer loop
      vertex 0 1.75 5.65
      vertex -0.452933 1.69037 6.05
      vertex 0 1.75 6.05
    endloop
  endfacet
  facet normal -0.130527 0.991445 0
    outer loop
      vertex -0.452933 1.69037 6.05
      vertex 0 1.75 5.65
      vertex -0.452933 1.69037 5.65
    endloop
  endfacet
  facet normal -0.923876 -0.382691 0
    outer loop
      vertex -1.51554 -0.875 5.65
      vertex -1.69037 -0.452933 6.05
      vertex -1.69037 -0.452933 5.65
    endloop
  endfacet
  facet normal -0.923876 -0.382691 0
    outer loop
      vertex -1.69037 -0.452933 6.05
      vertex -1.51554 -0.875 5.65
      vertex -1.51554 -0.875 6.05
    endloop
  endfacet
  facet normal -0.991445 -0.130527 0
    outer loop
      vertex -1.69037 -0.452933 5.65
      vertex -1.75 0 6.05
      vertex -1.75 0 5.65
    endloop
  endfacet
  facet normal -0.991445 -0.130527 0
    outer loop
      vertex -1.75 0 6.05
      vertex -1.69037 -0.452933 5.65
      vertex -1.69037 -0.452933 6.05
    endloop
  endfacet
  facet normal 0.923876 -0.382691 0
    outer loop
      vertex 1.51554 -0.875 6.05
      vertex 1.69037 -0.452933 5.65
      vertex 1.69037 -0.452933 6.05
    endloop
  endfacet
  facet normal 0.923876 -0.382691 0
    outer loop
      vertex 1.69037 -0.452933 5.65
      vertex 1.51554 -0.875 6.05
      vertex 1.51554 -0.875 5.65
    endloop
  endfacet
  facet normal -0.382694 -0.923875 0
    outer loop
      vertex -0.550395 -1.65 5.65
      vertex -0.875 -1.51554 6.05
      vertex -0.875 -1.51554 5.65
    endloop
  endfacet
  facet normal -0.382691 -0.923876 2.3896e-06
    outer loop
      vertex -0.875 -1.51554 6.05
      vertex -0.550395 -1.65 5.65
      vertex -0.452933 -1.69037 6.05
    endloop
  endfacet
  facet normal -0.382683 -0.92388 -0
    outer loop
      vertex -0.452933 -1.69037 6.05
      vertex -0.550395 -1.65 5.65
      vertex -0.452933 -1.69037 5.65
    endloop
  endfacet
  facet normal -0.923876 0.382691 0
    outer loop
      vertex -1.69037 0.452933 5.65
      vertex -1.51554 0.875 6.05
      vertex -1.51554 0.875 5.65
    endloop
  endfacet
  facet normal -0.923876 0.382691 0
    outer loop
      vertex -1.51554 0.875 6.05
      vertex -1.69037 0.452933 5.65
      vertex -1.69037 0.452933 6.05
    endloop
  endfacet
  facet normal 0 0 1
    outer loop
      vertex 1.69037 0.452933 6.05
      vertex 1.69037 -0.452933 6.05
      vertex 1.75 0 6.05
    endloop
  endfacet
  facet normal 0 0 1
    outer loop
      vertex 1.51554 0.875 6.05
      vertex 1.69037 -0.452933 6.05
      vertex 1.69037 0.452933 6.05
    endloop
  endfacet
  facet normal 0 0 1
    outer loop
      vertex 1.51554 0.875 6.05
      vertex 1.51554 -0.875 6.05
      vertex 1.69037 -0.452933 6.05
    endloop
  endfacet
  facet normal 0 0 1
    outer loop
      vertex 1.23744 1.23744 6.05
      vertex 1.51554 -0.875 6.05
      vertex 1.51554 0.875 6.05
    endloop
  endfacet
  facet normal 0 0 1
    outer loop
      vertex 1.23744 1.23744 6.05
      vertex 1.23744 -1.23744 6.05
      vertex 1.51554 -0.875 6.05
    endloop
  endfacet
  facet normal 0 0 1
    outer loop
      vertex 0.875 1.51554 6.05
      vertex 1.23744 -1.23744 6.05
      vertex 1.23744 1.23744 6.05
    endloop
  endfacet
  facet normal 0 0 1
    outer loop
      vertex 0.875 1.51554 6.05
      vertex 0.875 -1.51554 6.05
      vertex 1.23744 -1.23744 6.05
    endloop
  endfacet
  facet normal 0 0 1
    outer loop
      vertex 0.452933 1.69037 6.05
      vertex 0.875 -1.51554 6.05
      vertex 0.875 1.51554 6.05
    endloop
  endfacet
  facet normal 0 0 1
    outer loop
      vertex 0.452933 1.69037 6.05
      vertex 0.452933 -1.69037 6.05
      vertex 0.875 -1.51554 6.05
    endloop
  endfacet
  facet normal 0 0 1
    outer loop
      vertex 0 1.75 6.05
      vertex 0.452933 -1.69037 6.05
      vertex 0.452933 1.69037 6.05
    endloop
  endfacet
  facet normal 0 0 1
    outer loop
      vertex 0 1.75 6.05
      vertex 0 -1.75 6.05
      vertex 0.452933 -1.69037 6.05
    endloop
  endfacet
  facet normal -0 0 1
    outer loop
      vertex -0.452933 1.69037 6.05
      vertex 0 -1.75 6.05
      vertex 0 1.75 6.05
    endloop
  endfacet
  facet normal 0 0 1
    outer loop
      vertex -0.452933 1.69037 6.05
      vertex -0.452933 -1.69037 6.05
      vertex 0 -1.75 6.05
    endloop
  endfacet
  facet normal -0 0 1
    outer loop
      vertex -0.875 1.51554 6.05
      vertex -0.452933 -1.69037 6.05
      vertex -0.452933 1.69037 6.05
    endloop
  endfacet
  facet normal 0 0 1
    outer loop
      vertex -0.875 1.51554 6.05
      vertex -0.875 -1.51554 6.05
      vertex -0.452933 -1.69037 6.05
    endloop
  endfacet
  facet normal -0 0 1
    outer loop
      vertex -1.23744 1.23744 6.05
      vertex -0.875 -1.51554 6.05
      vertex -0.875 1.51554 6.05
    endloop
  endfacet
  facet normal 0 0 1
    outer loop
      vertex -1.23744 1.23744 6.05
      vertex -1.23744 -1.23744 6.05
      vertex -0.875 -1.51554 6.05
    endloop
  endfacet
  facet normal -0 0 1
    outer loop
      vertex -1.51554 0.875 6.05
      vertex -1.23744 -1.23744 6.05
      vertex -1.23744 1.23744 6.05
    endloop
  endfacet
  facet normal 0 0 1
    outer loop
      vertex -1.51554 0.875 6.05
      vertex -1.51554 -0.875 6.05
      vertex -1.23744 -1.23744 6.05
    endloop
  endfacet
  facet normal -0 0 1
    outer loop
      vertex -1.69037 0.452933 6.05
      vertex -1.51554 -0.875 6.05
      vertex -1.51554 0.875 6.05
    endloop
  endfacet
  facet normal 0 0 1
    outer loop
      vertex -1.69037 0.452933 6.05
      vertex -1.69037 -0.452933 6.05
      vertex -1.51554 -0.875 6.05
    endloop
  endfacet
  facet normal 0 -0 1
    outer loop
      vertex -1.69037 -0.452933 6.05
      vertex -1.69037 0.452933 6.05
      vertex -1.75 0 6.05
    endloop
  endfacet
  facet normal 1 0 0
    outer loop
      vertex 6.35 -4.75 6.65
      vertex 6.35 -6.98408 4.15
      vertex 6.35 -4.75 4.15
    endloop
  endfacet
  facet normal 1 -0 0
    outer loop
      vertex 6.35 -7.25 6.65
      vertex 6.35 -6.98408 4.15
      vertex 6.35 -4.75 6.65
    endloop
  endfacet
  facet normal 1 0 0
    outer loop
      vertex 6.35 -6.98408 4.15
      vertex 6.35 -7.25 6.65
      vertex 6.35 -7.25 4.15
    endloop
  endfacet
  facet normal -0 0 1
    outer loop
      vertex -6.35 -4.75 6.65
      vertex 6.35 -7.25 6.65
      vertex 6.35 -4.75 6.65
    endloop
  endfacet
  facet normal 0 0 1
    outer loop
      vertex 6.35 -7.25 6.65
      vertex -6.35 -4.75 6.65
      vertex -6.35 -7.25 6.65
    endloop
  endfacet
  facet normal -1 0 0
    outer loop
      vertex -6.35 -6.98408 4.15
      vertex -6.35 -4.75 6.65
      vertex -6.35 -4.75 4.15
    endloop
  endfacet
  facet normal -1 0 0
    outer loop
      vertex -6.35 -7.25 6.65
      vertex -6.35 -6.98408 4.15
      vertex -6.35 -7.25 4.15
    endloop
  endfacet
  facet normal -1 0 0
    outer loop
      vertex -6.35 -6.98408 4.15
      vertex -6.35 -7.25 6.65
      vertex -6.35 -4.75 6.65
    endloop
  endfacet
  facet normal 0 1 -0
    outer loop
      vertex 6.35 -4.75 4.15
      vertex -6.35 -4.75 6.65
      vertex 6.35 -4.75 6.65
    endloop
  endfacet
  facet normal 0 1 0
    outer loop
      vertex -6.35 -4.75 6.65
      vertex 6.35 -4.75 4.15
      vertex -6.35 -4.75 4.15
    endloop
  endfacet
  facet normal 0 -1 0
    outer loop
      vertex -6.35 -7.25 4.15
      vertex 6.35 -7.25 6.65
      vertex -6.35 -7.25 6.65
    endloop
  endfacet
  facet normal 0 -1 -0
    outer loop
      vertex 6.35 -7.25 6.65
      vertex -6.35 -7.25 4.15
      vertex 6.35 -7.25 4.15
    endloop
  endfacet
endsolid OpenSCAD_Model
